<svg xmlns="http://www.w3.org/2000/svg" width="4776" height="4777.863" viewBox="0 0 4776 4777.863">
  <g id="Group_12739" data-name="Group 12739" transform="translate(-5923 8587.863)">
    <g id="Group_12737" data-name="Group 12737">
      <g id="Soccerball" transform="translate(8311 -6198)">
        <g id="Group_12735" data-name="Group 12735">
          <circle id="Ellipse_262" data-name="Ellipse 262" cx="2376" cy="2376" r="2376" transform="translate(-2376 -2376)" fill="#fff" stroke="#000" stroke-width="24"/>
          <path id="Path_41062" data-name="Path 41062" d="M-1643-1716l155,158M-2038,806c231,231,538,195,826,202m-524-2040C-2227-681-2346,32-2328,28M-1112-980c-51,373,84,783,364,1220M-855-2049c157-157,466-267,873-329M-510,1734c-50,132-37,315-8,510m62-3883c282,32,792,74,1196,303M336,1308c310,173,649,247,1060,180M1056-520C814-186,522,125,184,416M1293-1703c-111-207-296-375-499-534M1940-956c100,3,197,44,290,141M1792-320c158,297,181,718,204,1140" fill="none" stroke="#000" stroke-width="24"/>
        </g>
        <path id="Path_41063" data-name="Path 41063" d="M-1624-1700c243-153,498-303,856-424,141,117,253,307,372,492-288,275-562,544-724,756-274-25-410-2-740-60C-1857-1180-1776-1435-1624-1700Zm2904-40c271,248,537,498,724,788-55,262-105,553-180,704-234-35-536-125-820-200-138-357-231-625-340-924C874-1528,1081-1668,1280-1740ZM-1993,1293A2376,2376,0,0,1-2371-99l59-7c54,342,124,674,311,928-36,179-2,323,51,458ZM-796,168C-431,228-79,288,264,348c106,333,120,667,156,1000-263,218-625,287-944,420-372-240-523-508-736-768C-1138,719-1003,439-796,168ZM2217,846a2376,2376,0,0,1-925,1147l-116-5c84-127,114-297,118-488,232-111,464-463,696-772C2076,758,2149,800,2217,846ZM-70,2373a2376,2376,0,0,1-993-251c199,74,367,143,542,83C-468,2280-345,2339-70,2373Z"/>
      </g>
      <g id="Group_12736" data-name="Group 12736" transform="translate(-93.804 -93.804)">
        <g id="Ellipse_263" data-name="Ellipse 263" transform="translate(7405.804 -7104.196)" stroke="#000" stroke-width="25">
          <circle cx="999" cy="999" r="999" stroke="none"/>
          <circle cx="999" cy="999" r="986.5" fill="none"/>
        </g>
        <g id="Ellipse_264" data-name="Ellipse 264" transform="translate(7405.804 -7104.196)" fill="#fff" stroke="#000" stroke-width="25">
          <circle cx="999" cy="999" r="999" stroke="none"/>
          <circle cx="999" cy="999" r="986.5" fill="none"/>
        </g>
      </g>
      <text id="_1" data-name="1" transform="translate(8311 -5849)" font-size="1000" font-family="Poppins-SemiBold, Poppins" font-weight="600"><tspan x="-181" y="0">1</tspan></text>
    </g>
  </g>
</svg>
